<svg xmlns="http://www.w3.org/2000/svg" viewBox="0 0 680 330" width="680" height="330" role="img" aria-label="Eight Venn diagram types for three classes A, B and C: 1 all separate; 2 nested, A inside B inside C; 3 A and B separate inside C; 4 A and B overlapping, C separate; 5 A inside B, C overlapping both; 6 all three overlapping; 7 A and B overlapping inside C; 8 A inside B, C separate" font-family="system-ui, -apple-system, Segoe UI, Roboto, sans-serif">
<title>Eight Venn diagram types for three classes A, B and C: 1 all separate; 2 nested, A inside B inside C; 3 A and B separate inside C; 4 A and B overlapping, C separate; 5 A inside B, C overlapping both; 6 all three overlapping; 7 A and B overlapping inside C; 8 A inside B, C separate</title>
<rect width="680" height="330" fill="#f9fafb"/>
<g transform="translate(0,0)"><rect x="4" y="4" width="162" height="157" rx="8" fill="#ffffff" stroke="#d1d5db"/><circle cx="35" cy="70" r="20" fill="#2563eb" fill-opacity="0.12" stroke="#2563eb" stroke-width="2.5"/><circle cx="85" cy="70" r="20" fill="#16a34a" fill-opacity="0.12" stroke="#16a34a" stroke-width="2.5"/><circle cx="135" cy="70" r="20" fill="#d97706" fill-opacity="0.12" stroke="#d97706" stroke-width="2.5"/><text x="35" y="75" text-anchor="middle" font-size="13" font-weight="700" fill="#1f2937">A</text><text x="85" y="75" text-anchor="middle" font-size="13" font-weight="700" fill="#1f2937">B</text><text x="135" y="75" text-anchor="middle" font-size="13" font-weight="700" fill="#1f2937">C</text><text x="85" y="151" text-anchor="middle" font-size="12" fill="#1f2937">1. All separate</text></g>
<g transform="translate(170,0)"><rect x="4" y="4" width="162" height="157" rx="8" fill="#ffffff" stroke="#d1d5db"/><circle cx="85" cy="75" r="58" fill="#d97706" fill-opacity="0.12" stroke="#d97706" stroke-width="2.5"/><circle cx="85" cy="82" r="38" fill="#16a34a" fill-opacity="0.12" stroke="#16a34a" stroke-width="2.5"/><circle cx="85" cy="90" r="18" fill="#2563eb" fill-opacity="0.12" stroke="#2563eb" stroke-width="2.5"/><text x="85" y="95" text-anchor="middle" font-size="13" font-weight="700" fill="#1f2937">A</text><text x="85" y="60" text-anchor="middle" font-size="13" font-weight="700" fill="#1f2937">B</text><text x="85" y="30" text-anchor="middle" font-size="13" font-weight="700" fill="#1f2937">C</text><text x="85" y="151" text-anchor="middle" font-size="12" fill="#1f2937">2. Nested (A ⊂ B ⊂ C)</text></g>
<g transform="translate(340,0)"><rect x="4" y="4" width="162" height="157" rx="8" fill="#ffffff" stroke="#d1d5db"/><circle cx="85" cy="75" r="58" fill="#d97706" fill-opacity="0.12" stroke="#d97706" stroke-width="2.5"/><circle cx="62" cy="82" r="20" fill="#2563eb" fill-opacity="0.12" stroke="#2563eb" stroke-width="2.5"/><circle cx="108" cy="82" r="20" fill="#16a34a" fill-opacity="0.12" stroke="#16a34a" stroke-width="2.5"/><text x="62" y="87" text-anchor="middle" font-size="13" font-weight="700" fill="#1f2937">A</text><text x="108" y="87" text-anchor="middle" font-size="13" font-weight="700" fill="#1f2937">B</text><text x="85" y="35" text-anchor="middle" font-size="13" font-weight="700" fill="#1f2937">C</text><text x="85" y="151" text-anchor="middle" font-size="12" fill="#1f2937">3. A, B separate inside C</text></g>
<g transform="translate(510,0)"><rect x="4" y="4" width="162" height="157" rx="8" fill="#ffffff" stroke="#d1d5db"/><circle cx="48" cy="72" r="30" fill="#2563eb" fill-opacity="0.12" stroke="#2563eb" stroke-width="2.5"/><circle cx="82" cy="72" r="30" fill="#16a34a" fill-opacity="0.12" stroke="#16a34a" stroke-width="2.5"/><circle cx="140" cy="72" r="20" fill="#d97706" fill-opacity="0.12" stroke="#d97706" stroke-width="2.5"/><text x="38" y="77" text-anchor="middle" font-size="13" font-weight="700" fill="#1f2937">A</text><text x="94" y="77" text-anchor="middle" font-size="13" font-weight="700" fill="#1f2937">B</text><text x="140" y="77" text-anchor="middle" font-size="13" font-weight="700" fill="#1f2937">C</text><text x="85" y="151" text-anchor="middle" font-size="12" fill="#1f2937">4. A, B overlap; C separate</text></g>
<g transform="translate(0,165)"><rect x="4" y="4" width="162" height="157" rx="8" fill="#ffffff" stroke="#d1d5db"/><circle cx="70" cy="75" r="50" fill="#16a34a" fill-opacity="0.12" stroke="#16a34a" stroke-width="2.5"/><circle cx="65" cy="85" r="22" fill="#2563eb" fill-opacity="0.12" stroke="#2563eb" stroke-width="2.5"/><circle cx="108" cy="82" r="32" fill="#d97706" fill-opacity="0.12" stroke="#d97706" stroke-width="2.5"/><text x="57" y="90" text-anchor="middle" font-size="13" font-weight="700" fill="#1f2937">A</text><text x="48" y="50" text-anchor="middle" font-size="13" font-weight="700" fill="#1f2937">B</text><text x="126" y="90" text-anchor="middle" font-size="13" font-weight="700" fill="#1f2937">C</text><text x="85" y="151" text-anchor="middle" font-size="12" fill="#1f2937">5. A ⊂ B; C overlaps both</text></g>
<g transform="translate(170,165)"><rect x="4" y="4" width="162" height="157" rx="8" fill="#ffffff" stroke="#d1d5db"/><circle cx="65" cy="62" r="32" fill="#2563eb" fill-opacity="0.12" stroke="#2563eb" stroke-width="2.5"/><circle cx="105" cy="62" r="32" fill="#16a34a" fill-opacity="0.12" stroke="#16a34a" stroke-width="2.5"/><circle cx="85" cy="96" r="32" fill="#d97706" fill-opacity="0.12" stroke="#d97706" stroke-width="2.5"/><text x="55" y="55" text-anchor="middle" font-size="13" font-weight="700" fill="#1f2937">A</text><text x="115" y="55" text-anchor="middle" font-size="13" font-weight="700" fill="#1f2937">B</text><text x="85" y="112" text-anchor="middle" font-size="13" font-weight="700" fill="#1f2937">C</text><text x="85" y="151" text-anchor="middle" font-size="12" fill="#1f2937">6. All three overlap</text></g>
<g transform="translate(340,165)"><rect x="4" y="4" width="162" height="157" rx="8" fill="#ffffff" stroke="#d1d5db"/><circle cx="85" cy="75" r="60" fill="#d97706" fill-opacity="0.12" stroke="#d97706" stroke-width="2.5"/><circle cx="68" cy="85" r="24" fill="#2563eb" fill-opacity="0.12" stroke="#2563eb" stroke-width="2.5"/><circle cx="102" cy="85" r="24" fill="#16a34a" fill-opacity="0.12" stroke="#16a34a" stroke-width="2.5"/><text x="60" y="90" text-anchor="middle" font-size="13" font-weight="700" fill="#1f2937">A</text><text x="110" y="90" text-anchor="middle" font-size="13" font-weight="700" fill="#1f2937">B</text><text x="85" y="35" text-anchor="middle" font-size="13" font-weight="700" fill="#1f2937">C</text><text x="85" y="151" text-anchor="middle" font-size="12" fill="#1f2937">7. A, B overlap inside C</text></g>
<g transform="translate(510,165)"><rect x="4" y="4" width="162" height="157" rx="8" fill="#ffffff" stroke="#d1d5db"/><circle cx="60" cy="72" r="42" fill="#16a34a" fill-opacity="0.12" stroke="#16a34a" stroke-width="2.5"/><circle cx="60" cy="82" r="18" fill="#2563eb" fill-opacity="0.12" stroke="#2563eb" stroke-width="2.5"/><circle cx="138" cy="72" r="22" fill="#d97706" fill-opacity="0.12" stroke="#d97706" stroke-width="2.5"/><text x="60" y="87" text-anchor="middle" font-size="13" font-weight="700" fill="#1f2937">A</text><text x="60" y="50" text-anchor="middle" font-size="13" font-weight="700" fill="#1f2937">B</text><text x="138" y="77" text-anchor="middle" font-size="13" font-weight="700" fill="#1f2937">C</text><text x="85" y="151" text-anchor="middle" font-size="12" fill="#1f2937">8. A ⊂ B; C separate</text></g>
</svg>
